<svg width="28" height="28" viewBox="0 0 28 28" fill="none" xmlns="http://www.w3.org/2000/svg">
<path d="M0.875 14C0.875 16.5959 1.64477 19.1335 3.08696 21.2919C4.52916 23.4503 6.579 25.1325 8.97728 26.1259C11.3756 27.1193 14.0146 27.3792 16.5606 26.8728C19.1066 26.3664 21.4452 25.1163 23.2808 23.2808C25.1163 21.4452 26.3664 19.1066 26.8728 16.5606C27.3792 14.0146 27.1193 11.3756 26.1259 8.97728C25.1325 6.579 23.4503 4.52916 21.2919 3.08696C19.1335 1.64477 16.5959 0.875 14 0.875C10.519 0.875 7.18064 2.25781 4.71922 4.71922C2.25781 7.18064 0.875 10.519 0.875 14ZM22.5781 21.2656L6.73438 5.42188C8.89122 3.62656 11.6412 2.70217 14.4445 2.83012C17.2479 2.95807 19.9022 4.12914 21.8865 6.11347C23.8709 8.0978 25.0419 10.7521 25.1699 13.5555C25.2978 16.3588 24.3734 19.1088 22.5781 21.2656ZM6.725 22.5875C4.45468 20.6595 3.04157 17.9099 2.79552 14.9416C2.54948 11.9733 3.4906 9.02858 5.4125 6.75313L21.2469 22.5875C19.2165 24.3031 16.6441 25.2444 13.9859 25.2444C11.3277 25.2444 8.75541 24.3031 6.725 22.5875Z" fill="black"/>
</svg>
