<svg width="18" height="32" viewBox="0 0 18 32" fill="none" xmlns="http://www.w3.org/2000/svg">
<path d="M8.86528 4.64253V0.410645L4.57687 6.05316L8.86528 11.6957V7.46378C12.4139 7.46378 15.2979 11.2584 15.2979 15.9276C15.2979 17.3523 15.0299 18.7065 14.5474 19.8773L16.1127 21.9368C16.949 20.2018 17.4421 18.1422 17.4421 15.9276C17.4421 9.69258 13.604 4.64253 8.86528 4.64253ZM8.86528 24.3913C5.31662 24.3913 2.43266 20.5967 2.43266 15.9276C2.43266 14.5028 2.70069 13.1486 3.18313 11.9778L1.61786 9.91828C0.78162 11.6533 0.288452 13.7129 0.288452 15.9276C0.288452 22.1625 4.12658 27.2126 8.86528 27.2126V31.4445L13.1537 25.8019L8.86528 20.1594V24.3913Z" fill="black"/>
</svg>
