<svg width="40" height="40" viewBox="0 0 40 40" fill="none" xmlns="http://www.w3.org/2000/svg">
<path fill-rule="evenodd" clip-rule="evenodd" d="M21.875 2.06897C21.875 1.52024 21.6775 0.993992 21.3258 0.605986C20.9742 0.21798 20.4973 0 20 0C19.5027 0 19.0258 0.21798 18.6742 0.605986C18.3225 0.993992 18.125 1.52024 18.125 2.06897V5.51724H15.6649C14.9024 5.51724 14.1549 5.73793 13.4924 6.15172L10.2724 8.18483C10.1773 8.24488 10.0695 8.27628 9.95988 8.27586H4.37482C3.87753 8.27586 3.40061 8.49384 3.04898 8.88185C2.69734 9.26985 2.4998 9.7961 2.4998 10.3448C2.4998 10.8936 2.69734 11.4198 3.04898 11.8078C3.40061 12.1958 3.87753 12.4138 4.37482 12.4138H5.44483L0.164768 25.3572C0.00881172 25.7402 -0.0378841 26.1664 0.0308826 26.5793C0.0996493 26.9922 0.280624 27.3722 0.549773 27.669L1.87479 26.2069L0.549773 27.669V27.6717L0.554773 27.6772L0.559773 27.6828L0.574773 27.6993L0.614774 27.7407L0.727275 27.851C1.25306 28.3373 1.82866 28.7539 2.4423 29.0924C4.01658 29.9393 5.74856 30.3682 7.49985 30.3448C9.69988 30.3448 11.3899 29.7379 12.5574 29.0924C13.171 28.7539 13.7466 28.3373 14.2724 27.851L14.3849 27.7407L14.4249 27.6993L14.4399 27.6828L14.4449 27.6772L14.4474 27.6717L13.1249 26.2069L14.4499 27.669C14.7191 27.3722 14.9001 26.9922 14.9688 26.5793C15.0376 26.1664 14.9909 25.7402 14.8349 25.3572L9.55488 12.4138H9.95988C10.7224 12.4138 11.4699 12.1931 12.1324 11.7793L15.3549 9.74621C15.4493 9.68662 15.5562 9.65524 15.6649 9.65517H18.125V35.8621H11.8749C11.3776 35.8621 10.9007 36.0801 10.5491 36.4681C10.1974 36.8561 9.99988 37.3823 9.99988 37.931C9.99988 38.4798 10.1974 39.006 10.5491 39.394C10.9007 39.782 11.3776 40 11.8749 40H28.1251C28.6224 40 29.0993 39.782 29.4509 39.394C29.8026 39.006 30.0001 38.4798 30.0001 37.931C30.0001 37.3823 29.8026 36.8561 29.4509 36.4681C29.0993 36.0801 28.6224 35.8621 28.1251 35.8621H21.875V9.65517H24.3351C24.4438 9.65524 24.5507 9.68662 24.6451 9.74621L27.8701 11.7766C28.5301 12.1959 29.2776 12.4138 30.0401 12.4138H30.4451L25.1651 25.3572C25.0091 25.7402 24.9624 26.1664 25.0312 26.5793C25.0999 26.9922 25.2809 27.3722 25.5501 27.669L26.8751 26.2069L25.5501 27.669V27.6717L25.5551 27.6772L25.5601 27.6828L25.5751 27.6993L25.6151 27.7407L25.7276 27.851C26.2534 28.3372 26.829 28.7539 27.4426 29.0924C29.0169 29.9393 30.7489 30.3682 32.5001 30.3448C34.7002 30.3448 36.3902 29.7379 37.5577 29.0924C38.1714 28.754 38.747 28.3373 39.2727 27.851L39.3852 27.7407L39.4102 27.7131L39.4252 27.6993L39.4402 27.6828L39.4452 27.6772L39.4477 27.6717L38.1252 26.2069L39.4502 27.669C39.7194 27.3722 39.9004 26.9922 39.9691 26.5793C40.0379 26.1664 39.9912 25.7402 39.8352 25.3572L34.5577 12.4138H35.6252C36.1225 12.4138 36.5994 12.1958 36.951 11.8078C37.3027 11.4198 37.5002 10.8936 37.5002 10.3448C37.5002 9.7961 37.3027 9.26985 36.951 8.88185C36.5994 8.49384 36.1225 8.27586 35.6252 8.27586H30.0401C29.9314 8.27579 29.8245 8.24442 29.7301 8.18483L26.5051 6.15448C25.845 5.73783 25.098 5.5182 24.3376 5.51724H21.875V2.06897ZM4.23732 25.4538C4.94982 25.8262 6.03234 26.2069 7.49985 26.2069C8.96737 26.2069 10.0499 25.8262 10.7624 25.4538L7.49985 17.4538L4.23732 25.4538ZM29.2376 25.4538C29.9501 25.8262 31.0326 26.2069 32.5001 26.2069C33.9677 26.2069 35.0502 25.8262 35.7627 25.4538L32.5001 17.4538L29.2376 25.4538Z" fill="white"/>
</svg>
