<svg width="40" height="40" viewBox="0 0 40 40" fill="none" xmlns="http://www.w3.org/2000/svg">
<path d="M40 19.9622C40.0204 30.9815 31.0338 39.9921 20.0145 39.9999C15.2552 40.0033 10.8836 38.3442 7.44822 35.5716C6.55491 34.8506 6.48814 33.5118 7.29991 32.7001L8.20854 31.7914C8.90281 31.0971 10.0112 31.0212 10.7804 31.6314C13.3114 33.6399 16.5146 34.8387 20 34.8387C28.202 34.8387 34.8387 28.2007 34.8387 20C34.8387 11.798 28.2007 5.16129 20 5.16129C16.0634 5.16129 12.488 6.69104 9.83322 9.18806L13.9263 13.2811C14.7392 14.094 14.1635 15.4839 13.0139 15.4839H1.29032C0.577661 15.4839 0 14.9062 0 14.1935V2.46992C0 1.3204 1.38984 0.744677 2.20274 1.5575L6.18435 5.53911C9.77491 2.10774 14.6413 0 20 0C31.033 0 39.9796 8.93386 40 19.9622ZM25.4103 26.3157L26.2025 25.2972C26.8588 24.4534 26.7068 23.2373 25.863 22.5811L22.5806 20.0281V11.6129C22.5806 10.5439 21.7141 9.67741 20.6451 9.67741H19.3548C18.2859 9.67741 17.4193 10.5439 17.4193 11.6129V22.5525L22.6943 26.6552C23.538 27.3114 24.754 27.1595 25.4103 26.3157Z" fill="white"/>
</svg>
