<svg width="40" height="39" viewBox="0 0 40 39" fill="none" xmlns="http://www.w3.org/2000/svg">
<path d="M39.9799 12.657L38.3025 22.2802C38.0956 23.3432 37.2487 23.9896 36.2719 24.0017H11.8167L11.3311 26.7386H34.6387C35.8659 26.8319 36.6984 27.7013 36.7134 28.8133C36.6241 30.038 35.7548 30.8728 34.6387 30.888H8.8591C7.46487 30.7626 6.6335 29.6512 6.78436 28.416L7.88793 22.4125L6.2105 5.54987L1.44306 4.0491C0.27803 3.58654 -0.19747 2.5326 0.0746298 1.44467C0.527063 0.310835 1.61116 -0.207198 2.67906 0.0762351L8.7708 2.01854C9.59146 2.32617 10.0636 2.99794 10.1834 3.78427L10.5365 7.13914L38.17 10.2291C39.4397 10.5042 40.129 11.5099 39.9799 12.657ZM15.1757 35.2443C15.1757 36.9935 13.7577 38.4115 12.0085 38.4115C10.2592 38.4115 8.84123 36.9935 8.84123 35.2443C8.84123 33.495 10.2593 32.077 12.0085 32.077C13.7577 32.077 15.1757 33.4951 15.1757 35.2443ZM34.0841 35.2443C34.0841 36.9935 32.6661 38.4115 30.9168 38.4115C29.1676 38.4115 27.7496 36.9935 27.7496 35.2443C27.7496 33.495 29.1676 32.077 30.9168 32.077C32.6661 32.077 34.0841 33.4951 34.0841 35.2443Z" fill="white"/>
</svg>
