<svg width="107" height="55" viewBox="0 0 107 55" fill="none" xmlns="http://www.w3.org/2000/svg">
<path d="M0.61377 4.79201C0.61377 2.57585 2.41032 0.779297 4.62648 0.779297H102.269C104.485 0.779297 106.282 2.57585 106.282 4.79201V50.2694C106.282 52.4856 104.485 54.2821 102.269 54.2821H4.62648C2.41033 54.2821 0.61377 52.4856 0.61377 50.2694V4.79201Z" fill="url(#paint0_linear)"/>
<path d="M24.7648 29.6797H19.1872L17.9345 33.1543H16.1241L21.2079 19.8413H22.744L27.837 33.1543H26.0357L24.7648 29.6797ZM19.7175 28.2351H24.2436L21.976 22.0083L19.7175 28.2351ZM31.3847 27.9425V33.1543H29.6291V19.8413H34.5392C35.9961 19.8413 37.136 20.2131 37.9589 20.9568C38.7879 21.7005 39.2024 22.6849 39.2024 23.9102C39.2024 25.2025 38.7971 26.1991 37.9863 26.9001C37.1817 27.595 36.0266 27.9425 34.5209 27.9425H31.3847ZM31.3847 26.5069H34.5392C35.4779 26.5069 36.1972 26.2875 36.6971 25.8486C37.1969 25.4036 37.4469 24.7636 37.4469 23.9285C37.4469 23.136 37.1969 22.5021 36.6971 22.0266C36.1972 21.5511 35.5115 21.3043 34.6398 21.286H31.3847V26.5069ZM43.2073 31.7188H49.5163V33.1543H41.4426V19.8413H43.2073V31.7188ZM53.4023 33.1543H51.6468V19.8413H53.4023V33.1543ZM66.4136 28.93C66.249 30.3381 65.7279 31.4262 64.8501 32.1942C63.9784 32.9562 62.8172 33.3372 61.3664 33.3372C59.7937 33.3372 58.5319 32.7733 57.581 31.6456C56.6361 30.5179 56.1637 29.0092 56.1637 27.1196V25.8395C56.1637 24.602 56.3831 23.5139 56.822 22.5752C57.267 21.6365 57.8949 20.9172 58.7056 20.4173C59.5163 19.9114 60.4551 19.6584 61.5218 19.6584C62.936 19.6584 64.0698 20.0546 64.9232 20.8471C65.7766 21.6334 66.2734 22.7246 66.4136 24.1205H64.6489C64.4965 23.0598 64.1643 22.2918 63.6523 21.8163C63.1463 21.3408 62.4362 21.1031 61.5218 21.1031C60.4002 21.1031 59.5194 21.5176 58.8793 22.3466C58.2454 23.1756 57.9284 24.3552 57.9284 25.8852V27.1744C57.9284 28.6191 58.2301 29.7681 58.8336 30.6215C59.4371 31.4749 60.2813 31.9016 61.3664 31.9016C62.3417 31.9016 63.0884 31.6822 63.6065 31.2433C64.1308 30.7983 64.4782 30.0272 64.6489 28.93H66.4136ZM76.1698 29.6797H70.5922L69.3396 33.1543H67.5291L72.6129 19.8413H74.1491L79.242 33.1543H77.4407L76.1698 29.6797ZM71.1225 28.2351H75.6486L73.381 22.0083L71.1225 28.2351ZM85.9168 27.7687H82.7897V33.1543H81.025V19.8413H85.4322C86.9317 19.8413 88.0838 20.1826 88.8885 20.8654C89.6992 21.5481 90.1046 22.5417 90.1046 23.8462C90.1046 24.6752 89.879 25.3975 89.4279 26.0132C88.9829 26.6289 88.3612 27.0891 87.5626 27.3939L90.6897 33.0446V33.1543H88.8062L85.9168 27.7687ZM82.7897 26.3332H85.4871C86.3587 26.3332 87.0506 26.1077 87.5626 25.6566C88.0808 25.2055 88.3398 24.602 88.3398 23.8462C88.3398 23.0232 88.093 22.3923 87.5992 21.9535C87.1116 21.5146 86.4045 21.2921 85.4779 21.286H82.7897V26.3332Z" fill="#FFFCFC"/>
<defs>
<linearGradient id="paint0_linear" x1="0.61377" y1="0.779297" x2="43.7381" y2="85.9498" gradientUnits="userSpaceOnUse">
<stop stop-color="#72EDF2"/>
<stop offset="1" stop-color="#5151E5"/>
</linearGradient>
</defs>
</svg>
