<svg width="28" height="28" viewBox="0 0 28 28" fill="none" xmlns="http://www.w3.org/2000/svg">
<path fill-rule="evenodd" clip-rule="evenodd" d="M14.0035 19.8347V15.5094C14.0035 14.1058 15.0102 12.9645 16.2505 12.9645H24.5022V10.2696C24.5022 8.99149 23.7924 7.92328 22.8209 7.57471V7.57658L19.9204 7.55035L19.8853 7.44165H6.8656L6.61789 7.53161L2.0256 7.52786L2.01682 7.4885C0.899486 7.71339 0 8.79284 0 10.1815V25.0858C0 26.645 1.13841 27.9999 2.44372 27.9999H22.1446C23.4499 27.9999 24.504 26.7331 24.504 25.1739V22.4509H16.2522C15.0119 22.4509 14.0035 21.2384 14.0035 19.8347Z" fill="white"/>
<path fill-rule="evenodd" clip-rule="evenodd" d="M26.3143 15.011H17.518C16.5886 15.011 15.835 15.888 15.835 16.9694V18.4986C15.835 19.578 16.5886 20.4551 17.518 20.4551H26.3143C27.2437 20.4551 27.9991 19.578 27.9991 18.4986V16.9694C27.9991 15.8862 27.2437 15.011 26.3143 15.011ZM21.1054 18.6747H17.4828V16.7707H21.1054V18.6747Z" fill="white"/>
<path fill-rule="evenodd" clip-rule="evenodd" d="M6.86781 7.44183L18.5172 3.18962L19.8875 7.44183H22.145C22.3822 7.44183 22.6071 7.49618 22.8231 7.57301L20.3829 0L1.81348 6.59851L2.01902 7.49056C2.15781 7.46244 2.30011 7.4437 2.44417 7.4437H6.86781V7.44183Z" fill="white"/>
</svg>
