<svg width="339" height="50" viewBox="0 0 339 50" fill="none" xmlns="http://www.w3.org/2000/svg">
<rect width="339" height="49.1425" rx="12.4939" fill="url(#paint0_linear)"/>
<path d="M45.5744 26.5242H42.8218V32H40.3523V17.7882H45.3499C46.9897 17.7882 48.2553 18.1559 49.1468 18.8912C50.0383 19.6265 50.4841 20.6905 50.4841 22.083C50.4841 23.0331 50.253 23.8302 49.791 24.4744C49.3355 25.1121 48.6978 25.6034 47.8779 25.9483L51.0697 31.8731V32H48.4245L45.5744 26.5242ZM42.8218 24.5427H45.3596C46.1925 24.5427 46.8433 24.3345 47.3118 23.918C47.7803 23.4951 48.0146 22.9192 48.0146 22.1904C48.0146 21.429 47.7966 20.8401 47.3606 20.4237C46.9311 20.0072 46.2869 19.7925 45.4279 19.7794H42.8218V24.5427ZM57.2483 32.1952C55.7451 32.1952 54.525 31.7234 53.588 30.7799C52.6575 29.8298 52.1922 28.5674 52.1922 26.9927V26.6999C52.1922 25.6457 52.3939 24.7054 52.7974 23.879C53.2073 23.0461 53.78 22.3986 54.5153 21.9366C55.2506 21.4746 56.0705 21.2436 56.975 21.2436C58.4131 21.2436 59.5226 21.7023 60.3034 22.6198C61.0908 23.5374 61.4845 24.8356 61.4845 26.5144V27.471H54.5836C54.6552 28.3429 54.9448 29.0327 55.4523 29.5403C55.9664 30.0478 56.6106 30.3016 57.385 30.3016C58.4717 30.3016 59.3566 29.8624 60.0399 28.9839L61.3186 30.204C60.8956 30.8352 60.3295 31.3265 59.6202 31.6779C58.9174 32.0228 58.1268 32.1952 57.2483 32.1952ZM56.9652 23.1469C56.3145 23.1469 55.7874 23.3747 55.384 23.8302C54.987 24.2857 54.7333 24.9201 54.6226 25.7335H59.1419V25.5579C59.0898 24.764 58.8784 24.1653 58.5075 23.7619C58.1365 23.3519 57.6225 23.1469 56.9652 23.1469ZM66.9213 28.9937L69.1565 21.4388H71.6065L67.9462 32H65.8866L62.197 21.4388H64.6568L66.9213 28.9937ZM75.6182 32H73.2463V21.4388H75.6182V32ZM73.0999 18.696C73.0999 18.3316 73.2138 18.029 73.4415 17.7882C73.6758 17.5475 74.0076 17.4271 74.4371 17.4271C74.8666 17.4271 75.1985 17.5475 75.4327 17.7882C75.667 18.029 75.7841 18.3316 75.7841 18.696C75.7841 19.0539 75.667 19.3532 75.4327 19.594C75.1985 19.8283 74.8666 19.9454 74.4371 19.9454C74.0076 19.9454 73.6758 19.8283 73.4415 19.594C73.2138 19.3532 73.0999 19.0539 73.0999 18.696ZM84.1296 29.1303C84.1296 28.7073 83.9539 28.3852 83.6025 28.164C83.2577 27.9428 82.6818 27.7475 81.8749 27.5783C81.068 27.4092 80.3945 27.1944 79.8544 26.9341C78.6701 26.3615 78.0779 25.5318 78.0779 24.4451C78.0779 23.5341 78.4618 22.7728 79.2297 22.1611C79.9975 21.5494 80.9736 21.2436 82.1579 21.2436C83.4203 21.2436 84.4387 21.5559 85.2131 22.1806C85.9939 22.8053 86.3844 23.6155 86.3844 24.6111H84.0125C84.0125 24.1555 83.8433 23.7781 83.5049 23.4788C83.1666 23.173 82.7176 23.02 82.1579 23.02C81.6374 23.02 81.2111 23.1404 80.8793 23.3812C80.5539 23.622 80.3912 23.9441 80.3912 24.3475C80.3912 24.7119 80.5441 24.995 80.85 25.1967C81.1558 25.3984 81.774 25.6034 82.7045 25.8116C83.6351 26.0134 84.3639 26.2574 84.891 26.5437C85.4246 26.8235 85.8182 27.1619 86.072 27.5588C86.3323 27.9558 86.4625 28.4373 86.4625 29.0034C86.4625 29.9535 86.0688 30.7246 85.2814 31.3167C84.494 31.9024 83.4626 32.1952 82.1872 32.1952C81.3218 32.1952 80.5507 32.039 79.8739 31.7267C79.1972 31.4144 78.6701 30.9849 78.2926 30.4383C77.9152 29.8917 77.7265 29.3028 77.7265 28.6716H80.0301C80.0626 29.2312 80.2741 29.6639 80.6645 29.9697C81.055 30.2691 81.5723 30.4187 82.2165 30.4187C82.8412 30.4187 83.3162 30.3016 83.6416 30.0674C83.9669 29.8266 84.1296 29.5142 84.1296 29.1303ZM94.847 32C94.7429 31.7983 94.6518 31.4697 94.5737 31.0142C93.8189 31.8015 92.8948 32.1952 91.8016 32.1952C90.741 32.1952 89.8755 31.8926 89.2053 31.2875C88.535 30.6823 88.1999 29.934 88.1999 29.0425C88.1999 27.9167 88.6163 27.0545 89.4493 26.4559C90.2887 25.8507 91.486 25.5481 93.0413 25.5481H94.4956V24.8551C94.4956 24.3085 94.3427 23.8725 94.0369 23.5471C93.731 23.2153 93.2658 23.0493 92.6411 23.0493C92.101 23.0493 91.6585 23.186 91.3136 23.4593C90.9687 23.7261 90.7963 24.0677 90.7963 24.4842H88.4244C88.4244 23.905 88.6163 23.3649 89.0003 22.8639C89.3842 22.3563 89.9048 21.9594 90.562 21.673C91.2257 21.3867 91.9643 21.2436 92.7777 21.2436C94.0141 21.2436 94.9999 21.5559 95.7352 22.1806C96.4706 22.7988 96.848 23.6708 96.8675 24.7965V29.5598C96.8675 30.5098 97.0009 31.2679 97.2677 31.8341V32H94.847ZM92.2409 30.2919C92.7094 30.2919 93.1486 30.178 93.5586 29.9502C93.975 29.7225 94.2874 29.4166 94.4956 29.0327V27.0415H93.2169C92.3385 27.0415 91.678 27.1944 91.2355 27.5003C90.793 27.8061 90.5718 28.2388 90.5718 28.7984C90.5718 29.254 90.7214 29.6184 91.0208 29.8917C91.3266 30.1585 91.7333 30.2919 92.2409 30.2919ZM104.881 23.6057C104.569 23.5536 104.247 23.5276 103.915 23.5276C102.828 23.5276 102.096 23.9441 101.719 24.777V32H99.3467V21.4388H101.611L101.67 22.6198C102.242 21.7023 103.036 21.2436 104.051 21.2436C104.39 21.2436 104.67 21.2891 104.891 21.3802L104.881 23.6057ZM110.913 26.6413C110.913 25.0145 111.291 23.7098 112.046 22.7272C112.8 21.7381 113.812 21.2436 115.081 21.2436C116.2 21.2436 117.105 21.634 117.795 22.4149V17.0074H120.167V32H118.019L117.902 30.9068C117.193 31.7657 116.246 32.1952 115.062 32.1952C113.825 32.1952 112.823 31.6974 112.055 30.7018C111.294 29.7062 110.913 28.3527 110.913 26.6413ZM113.285 26.8463C113.285 27.92 113.49 28.7594 113.9 29.3646C114.317 29.9632 114.906 30.2626 115.667 30.2626C116.636 30.2626 117.346 29.8298 117.795 28.9644V24.4549C117.359 23.6089 116.656 23.186 115.686 23.186C114.919 23.186 114.326 23.4918 113.91 24.1035C113.493 24.7087 113.285 25.6229 113.285 26.8463ZM128.951 32C128.847 31.7983 128.756 31.4697 128.678 31.0142C127.923 31.8015 126.999 32.1952 125.906 32.1952C124.845 32.1952 123.98 31.8926 123.31 31.2875C122.639 30.6823 122.304 29.934 122.304 29.0425C122.304 27.9167 122.721 27.0545 123.554 26.4559C124.393 25.8507 125.59 25.5481 127.146 25.5481H128.6V24.8551C128.6 24.3085 128.447 23.8725 128.141 23.5471C127.835 23.2153 127.37 23.0493 126.745 23.0493C126.205 23.0493 125.763 23.186 125.418 23.4593C125.073 23.7261 124.901 24.0677 124.901 24.4842H122.529C122.529 23.905 122.721 23.3649 123.105 22.8639C123.489 22.3563 124.009 21.9594 124.666 21.673C125.33 21.3867 126.069 21.2436 126.882 21.2436C128.118 21.2436 129.104 21.5559 129.84 22.1806C130.575 22.7988 130.952 23.6708 130.972 24.7965V29.5598C130.972 30.5098 131.105 31.2679 131.372 31.8341V32H128.951ZM126.345 30.2919C126.814 30.2919 127.253 30.178 127.663 29.9502C128.079 29.7225 128.392 29.4166 128.6 29.0327V27.0415H127.321C126.443 27.0415 125.782 27.1944 125.34 27.5003C124.897 27.8061 124.676 28.2388 124.676 28.7984C124.676 29.254 124.826 29.6184 125.125 29.8917C125.431 30.1585 125.838 30.2919 126.345 30.2919ZM133.012 26.6413C133.012 25.0145 133.389 23.7098 134.144 22.7272C134.899 21.7381 135.911 21.2436 137.18 21.2436C138.299 21.2436 139.203 21.634 139.893 22.4149V17.0074H142.265V32H140.118L140.001 30.9068C139.291 31.7657 138.345 32.1952 137.16 32.1952C135.924 32.1952 134.922 31.6974 134.154 30.7018C133.393 29.7062 133.012 28.3527 133.012 26.6413ZM135.384 26.8463C135.384 27.92 135.589 28.7594 135.999 29.3646C136.415 29.9632 137.004 30.2626 137.765 30.2626C138.735 30.2626 139.444 29.8298 139.893 28.9644V24.4549C139.457 23.6089 138.754 23.186 137.785 23.186C137.017 23.186 136.425 23.4918 136.008 24.1035C135.592 24.7087 135.384 25.6229 135.384 26.8463ZM144.295 26.6218C144.295 25.5871 144.5 24.6566 144.91 23.8302C145.32 22.9973 145.896 22.3596 146.638 21.9171C147.38 21.4681 148.232 21.2436 149.195 21.2436C150.62 21.2436 151.775 21.7023 152.66 22.6198C153.552 23.5374 154.033 24.7542 154.105 26.2704L154.115 26.8268C154.115 27.8679 153.913 28.7984 153.51 29.6184C153.113 30.4383 152.54 31.0727 151.792 31.5217C151.05 31.9707 150.191 32.1952 149.215 32.1952C147.725 32.1952 146.531 31.7007 145.633 30.7116C144.741 29.716 144.295 28.3917 144.295 26.7389V26.6218ZM146.667 26.8268C146.667 27.9135 146.892 28.7659 147.341 29.3841C147.79 29.9958 148.414 30.3016 149.215 30.3016C150.015 30.3016 150.637 29.9893 151.079 29.3646C151.528 28.7399 151.753 27.8256 151.753 26.6218C151.753 25.5546 151.522 24.7087 151.06 24.084C150.604 23.4593 149.983 23.1469 149.195 23.1469C148.421 23.1469 147.806 23.456 147.35 24.0742C146.895 24.6859 146.667 25.6034 146.667 26.8268ZM162.041 29.1303C162.041 28.7073 161.865 28.3852 161.513 28.164C161.169 27.9428 160.593 27.7475 159.786 27.5783C158.979 27.4092 158.305 27.1944 157.765 26.9341C156.581 26.3615 155.989 25.5318 155.989 24.4451C155.989 23.5341 156.373 22.7728 157.141 22.1611C157.908 21.5494 158.885 21.2436 160.069 21.2436C161.331 21.2436 162.35 21.5559 163.124 22.1806C163.905 22.8053 164.295 23.6155 164.295 24.6111H161.923C161.923 24.1555 161.754 23.7781 161.416 23.4788C161.077 23.173 160.628 23.02 160.069 23.02C159.548 23.02 159.122 23.1404 158.79 23.3812C158.465 23.622 158.302 23.9441 158.302 24.3475C158.302 24.7119 158.455 24.995 158.761 25.1967C159.067 25.3984 159.685 25.6034 160.615 25.8116C161.546 26.0134 162.275 26.2574 162.802 26.5437C163.335 26.8235 163.729 27.1619 163.983 27.5588C164.243 27.9558 164.373 28.4373 164.373 29.0034C164.373 29.9535 163.98 30.7246 163.192 31.3167C162.405 31.9024 161.374 32.1952 160.098 32.1952C159.233 32.1952 158.462 32.039 157.785 31.7267C157.108 31.4144 156.581 30.9849 156.204 30.4383C155.826 29.8917 155.637 29.3028 155.637 28.6716H157.941C157.974 29.2312 158.185 29.6639 158.575 29.9697C158.966 30.2691 159.483 30.4187 160.127 30.4187C160.752 30.4187 161.227 30.3016 161.552 30.0674C161.878 29.8266 162.041 29.5142 162.041 29.1303ZM170.981 26.6413C170.981 25.0145 171.359 23.7098 172.114 22.7272C172.869 21.7381 173.88 21.2436 175.149 21.2436C176.269 21.2436 177.173 21.634 177.863 22.4149V17.0074H180.235V32H178.087L177.97 30.9068C177.261 31.7657 176.314 32.1952 175.13 32.1952C173.893 32.1952 172.891 31.6974 172.123 30.7018C171.362 29.7062 170.981 28.3527 170.981 26.6413ZM173.353 26.8463C173.353 27.92 173.558 28.7594 173.968 29.3646C174.385 29.9632 174.974 30.2626 175.735 30.2626C176.705 30.2626 177.414 29.8298 177.863 28.9644V24.4549C177.427 23.6089 176.724 23.186 175.754 23.186C174.987 23.186 174.394 23.4918 173.978 24.1035C173.562 24.7087 173.353 25.6229 173.353 26.8463ZM182.265 26.6218C182.265 25.5871 182.47 24.6566 182.88 23.8302C183.29 22.9973 183.866 22.3596 184.608 21.9171C185.349 21.4681 186.202 21.2436 187.165 21.2436C188.59 21.2436 189.745 21.7023 190.63 22.6198C191.521 23.5374 192.003 24.7542 192.075 26.2704L192.084 26.8268C192.084 27.8679 191.883 28.7984 191.479 29.6184C191.082 30.4383 190.51 31.0727 189.761 31.5217C189.019 31.9707 188.161 32.1952 187.184 32.1952C185.694 32.1952 184.5 31.7007 183.602 30.7116C182.711 29.716 182.265 28.3917 182.265 26.7389V26.6218ZM184.637 26.8268C184.637 27.9135 184.861 28.7659 185.31 29.3841C185.759 29.9958 186.384 30.3016 187.184 30.3016C187.985 30.3016 188.606 29.9893 189.049 29.3646C189.498 28.7399 189.722 27.8256 189.722 26.6218C189.722 25.5546 189.491 24.7087 189.029 24.084C188.574 23.4593 187.952 23.1469 187.165 23.1469C186.391 23.1469 185.776 23.456 185.32 24.0742C184.865 24.6859 184.637 25.6034 184.637 26.8268ZM208.317 26.8268C208.317 28.4601 207.946 29.7648 207.204 30.7409C206.462 31.7104 205.466 32.1952 204.217 32.1952C203.059 32.1952 202.131 31.8145 201.435 31.0532V36.0605H199.063V21.4388H201.25L201.347 22.5125C202.044 21.6665 202.99 21.2436 204.188 21.2436C205.476 21.2436 206.485 21.7251 207.214 22.6882C207.949 23.6447 208.317 24.9755 208.317 26.6803V26.8268ZM205.954 26.6218C205.954 25.5676 205.743 24.7314 205.32 24.1133C204.904 23.4951 204.305 23.186 203.524 23.186C202.554 23.186 201.858 23.5862 201.435 24.3866V29.0718C201.865 29.8917 202.567 30.3016 203.544 30.3016C204.298 30.3016 204.887 29.999 205.31 29.3939C205.74 28.7822 205.954 27.8582 205.954 26.6218ZM216.643 32C216.538 31.7983 216.447 31.4697 216.369 31.0142C215.614 31.8015 214.69 32.1952 213.597 32.1952C212.537 32.1952 211.671 31.8926 211.001 31.2875C210.331 30.6823 209.995 29.934 209.995 29.0425C209.995 27.9167 210.412 27.0545 211.245 26.4559C212.084 25.8507 213.282 25.5481 214.837 25.5481H216.291V24.8551C216.291 24.3085 216.138 23.8725 215.832 23.5471C215.527 23.2153 215.061 23.0493 214.437 23.0493C213.897 23.0493 213.454 23.186 213.109 23.4593C212.764 23.7261 212.592 24.0677 212.592 24.4842H210.22C210.22 23.905 210.412 23.3649 210.796 22.8639C211.18 22.3563 211.7 21.9594 212.358 21.673C213.021 21.3867 213.76 21.2436 214.573 21.2436C215.81 21.2436 216.796 21.5559 217.531 22.1806C218.266 22.7988 218.644 23.6708 218.663 24.7965V29.5598C218.663 30.5098 218.796 31.2679 219.063 31.8341V32H216.643ZM214.036 30.2919C214.505 30.2919 214.944 30.178 215.354 29.9502C215.771 29.7225 216.083 29.4166 216.291 29.0327V27.0415H215.013C214.134 27.0415 213.474 27.1944 213.031 27.5003C212.589 27.8061 212.367 28.2388 212.367 28.7984C212.367 29.254 212.517 29.6184 212.816 29.8917C213.122 30.1585 213.529 30.2919 214.036 30.2919ZM220.732 26.6413C220.732 25.0015 221.116 23.6935 221.884 22.7175C222.659 21.7349 223.683 21.2436 224.959 21.2436C226.163 21.2436 227.109 21.6633 227.799 22.5027L227.907 21.4388H230.044V31.6779C230.044 33.0639 229.611 34.1571 228.746 34.9575C227.887 35.7579 226.726 36.1581 225.261 36.1581C224.487 36.1581 223.729 35.9954 222.987 35.6701C222.252 35.3512 221.692 34.9315 221.308 34.4109L222.431 32.9858C223.16 33.8513 224.058 34.284 225.125 34.284C225.912 34.284 226.534 34.0693 226.989 33.6398C227.445 33.2168 227.672 32.5922 227.672 31.7657V31.0532C226.989 31.8145 226.078 32.1952 224.939 32.1952C223.703 32.1952 222.691 31.7039 221.904 30.7213C221.123 29.7387 220.732 28.3787 220.732 26.6413ZM223.094 26.8463C223.094 27.907 223.309 28.7431 223.739 29.3548C224.175 29.96 224.777 30.2626 225.544 30.2626C226.501 30.2626 227.21 29.8526 227.672 29.0327V24.3866C227.223 23.5862 226.521 23.186 225.564 23.186C224.783 23.186 224.175 23.4951 223.739 24.1133C223.309 24.7314 223.094 25.6424 223.094 26.8463ZM238.8 32C238.696 31.7983 238.604 31.4697 238.526 31.0142C237.772 31.8015 236.848 32.1952 235.754 32.1952C234.694 32.1952 233.828 31.8926 233.158 31.2875C232.488 30.6823 232.153 29.934 232.153 29.0425C232.153 27.9167 232.569 27.0545 233.402 26.4559C234.241 25.8507 235.439 25.5481 236.994 25.5481H238.448V24.8551C238.448 24.3085 238.295 23.8725 237.99 23.5471C237.684 23.2153 237.218 23.0493 236.594 23.0493C236.054 23.0493 235.611 23.186 235.266 23.4593C234.921 23.7261 234.749 24.0677 234.749 24.4842H232.377C232.377 23.905 232.569 23.3649 232.953 22.8639C233.337 22.3563 233.857 21.9594 234.515 21.673C235.178 21.3867 235.917 21.2436 236.73 21.2436C237.967 21.2436 238.953 21.5559 239.688 22.1806C240.423 22.7988 240.801 23.6708 240.82 24.7965V29.5598C240.82 30.5098 240.954 31.2679 241.22 31.8341V32H238.8ZM236.194 30.2919C236.662 30.2919 237.101 30.178 237.511 29.9502C237.928 29.7225 238.24 29.4166 238.448 29.0327V27.0415H237.17C236.291 27.0415 235.631 27.1944 235.188 27.5003C234.746 27.8061 234.524 28.2388 234.524 28.7984C234.524 29.254 234.674 29.6184 234.973 29.8917C235.279 30.1585 235.686 30.2919 236.194 30.2919ZM245.535 21.4388L245.603 22.5418C246.345 21.6763 247.36 21.2436 248.648 21.2436C250.06 21.2436 251.027 21.7837 251.547 22.8639C252.315 21.7837 253.395 21.2436 254.788 21.2436C255.953 21.2436 256.818 21.5657 257.384 22.2099C257.957 22.8541 258.25 23.8042 258.263 25.0601V32H255.891V25.1284C255.891 24.4581 255.744 23.9668 255.452 23.6545C255.159 23.3421 254.674 23.186 253.997 23.186C253.457 23.186 253.015 23.3324 252.67 23.6252C252.331 23.9115 252.094 24.2889 251.957 24.7575L251.967 32H249.595V25.0503C249.563 23.8074 248.928 23.186 247.692 23.186C246.742 23.186 246.068 23.5732 245.671 24.3475V32H243.299V21.4388H245.535ZM265.349 32.1952C263.846 32.1952 262.626 31.7234 261.689 30.7799C260.758 29.8298 260.293 28.5674 260.293 26.9927V26.6999C260.293 25.6457 260.495 24.7054 260.898 23.879C261.308 23.0461 261.881 22.3986 262.616 21.9366C263.351 21.4746 264.171 21.2436 265.076 21.2436C266.514 21.2436 267.623 21.7023 268.404 22.6198C269.192 23.5374 269.585 24.8356 269.585 26.5144V27.471H262.684C262.756 28.3429 263.046 29.0327 263.553 29.5403C264.067 30.0478 264.711 30.3016 265.486 30.3016C266.572 30.3016 267.457 29.8624 268.141 28.9839L269.419 30.204C268.996 30.8352 268.43 31.3265 267.721 31.6779C267.018 32.0228 266.228 32.1952 265.349 32.1952ZM265.066 23.1469C264.415 23.1469 263.888 23.3747 263.485 23.8302C263.088 24.2857 262.834 24.9201 262.723 25.7335H267.243V25.5579C267.191 24.764 266.979 24.1653 266.608 23.7619C266.237 23.3519 265.723 23.1469 265.066 23.1469ZM273.636 21.4388L273.704 22.6589C274.485 21.7153 275.51 21.2436 276.779 21.2436C278.978 21.2436 280.098 22.5027 280.137 25.021V32H277.765V25.1577C277.765 24.4874 277.618 23.9929 277.326 23.674C277.039 23.3487 276.568 23.186 275.91 23.186C274.954 23.186 274.241 23.6187 273.773 24.4842V32H271.401V21.4388H273.636ZM285.535 18.8717V21.4388H287.399V23.1957H285.535V29.0913C285.535 29.4947 285.613 29.7875 285.769 29.9697C285.931 30.1454 286.218 30.2333 286.628 30.2333C286.901 30.2333 287.178 30.2008 287.457 30.1357V31.9707C286.917 32.1204 286.397 32.1952 285.896 32.1952C284.074 32.1952 283.163 31.1899 283.163 29.1791V23.1957H281.425V21.4388H283.163V18.8717H285.535ZM288.482 26.6218C288.482 25.5871 288.687 24.6566 289.097 23.8302C289.507 22.9973 290.083 22.3596 290.825 21.9171C291.567 21.4681 292.419 21.2436 293.382 21.2436C294.807 21.2436 295.962 21.7023 296.847 22.6198C297.739 23.5374 298.22 24.7542 298.292 26.2704L298.302 26.8268C298.302 27.8679 298.1 28.7984 297.696 29.6184C297.3 30.4383 296.727 31.0727 295.979 31.5217C295.237 31.9707 294.378 32.1952 293.402 32.1952C291.912 32.1952 290.718 31.7007 289.82 30.7116C288.928 29.716 288.482 28.3917 288.482 26.7389V26.6218ZM290.854 26.8268C290.854 27.9135 291.079 28.7659 291.528 29.3841C291.977 29.9958 292.601 30.3016 293.402 30.3016C294.202 30.3016 294.824 29.9893 295.266 29.3646C295.715 28.7399 295.94 27.8256 295.94 26.6218C295.94 25.5546 295.709 24.7087 295.247 24.084C294.791 23.4593 294.17 23.1469 293.382 23.1469C292.608 23.1469 291.993 23.456 291.537 24.0742C291.082 24.6859 290.854 25.6034 290.854 26.8268Z" fill="#FFFCFC"/>
<defs>
<linearGradient id="paint0_linear" x1="0" y1="0" x2="13.9545" y2="96.2621" gradientUnits="userSpaceOnUse">
<stop stop-color="#FEC163"/>
<stop offset="1" stop-color="#DE4313"/>
</linearGradient>
</defs>
</svg>
