<svg width="28" height="28" viewBox="0 0 28 28" fill="none" xmlns="http://www.w3.org/2000/svg">
<path d="M19.0986 7.74879C19.0986 7.60554 18.9814 7.48833 18.8381 7.48833H17.0637C16.966 7.48833 16.8749 7.54368 16.8325 7.63158L14.0749 13.1274H13.9674L11.2098 7.63158C11.1882 7.58873 11.1552 7.55267 11.1144 7.52739C11.0736 7.50211 11.0266 7.48859 10.9786 7.48833H9.16514C9.12282 7.48833 9.08049 7.4981 9.04142 7.52089C8.91445 7.58926 8.86887 7.74879 8.93724 7.87251L12.32 14.1106H10.4642C10.321 14.1106 10.2037 14.2278 10.2037 14.3711V15.2534C10.2037 15.3967 10.321 15.5139 10.4642 15.5139H12.9386V16.7836H10.4642C10.321 16.7836 10.2037 16.9008 10.2037 17.0441V17.9264C10.2037 18.0697 10.321 18.1869 10.4642 18.1869H12.9386V20.251C12.9386 20.3943 13.0558 20.5115 13.1991 20.5115H14.8237C14.967 20.5115 15.0842 20.3943 15.0842 20.251V18.1836H17.5683C17.7116 18.1836 17.8288 18.0664 17.8288 17.9232V17.0408C17.8288 16.8976 17.7116 16.7804 17.5683 16.7804H15.0842V15.5106H17.5683C17.7116 15.5106 17.8288 15.3934 17.8288 15.2501V14.3678C17.8288 14.2246 17.7116 14.1074 17.5683 14.1074H15.693L19.0693 7.86926C19.0856 7.83344 19.0986 7.79112 19.0986 7.74879ZM2.47123 13.746C2.53239 10.7787 3.74005 7.95028 5.84098 5.85392C6.89911 4.79579 8.1298 3.9623 9.50049 3.38277C10.92 2.7837 12.4275 2.47766 13.9805 2.47766C15.5367 2.47766 17.0442 2.78045 18.4604 3.38277C19.8311 3.9623 21.0618 4.79579 22.12 5.85392C22.4455 6.1795 22.7483 6.52136 23.0283 6.87624L21.4004 8.14925C21.3616 8.17925 21.3321 8.21959 21.3152 8.26562C21.2984 8.31166 21.2948 8.36152 21.305 8.40948C21.3152 8.45743 21.3388 8.50153 21.3729 8.53671C21.4071 8.57189 21.4505 8.59671 21.4981 8.60832L26.6032 9.85529C26.766 9.89436 26.9255 9.77064 26.9255 9.6046L26.9516 4.34649C26.9516 4.12835 26.7009 4.00463 26.5316 4.14137L24.9753 5.35904C22.4227 2.09348 18.4474 0 13.9837 0C6.34888 0 0.140081 6.12415 8.14144e-05 13.7329C-0.000787574 13.7677 0.00530736 13.8023 0.0180073 13.8346C0.0307072 13.867 0.049755 13.8965 0.0740283 13.9213C0.0983017 13.9462 0.12731 13.966 0.159343 13.9795C0.191376 13.993 0.225786 13.9999 0.260545 13.9999H2.21402C2.35402 13.9999 2.46797 13.886 2.47123 13.746ZM27.7395 13.9999H25.786C25.646 13.9999 25.5288 14.1139 25.5255 14.2539C25.4644 17.2212 24.2567 20.0496 22.1558 22.1459C21.1073 23.1987 19.8645 24.0379 18.4963 24.6171C17.0767 25.2161 15.5693 25.5222 14.0163 25.5222C12.4633 25.5222 10.9526 25.2194 9.5363 24.6171C8.16804 24.0379 6.92521 23.1987 5.87679 22.1459C5.55121 21.8203 5.24842 21.4785 4.96842 21.1236L6.59307 19.8506C6.63185 19.8206 6.66137 19.7802 6.67825 19.7342C6.69512 19.6882 6.69866 19.6383 6.68846 19.5904C6.67825 19.5424 6.65472 19.4983 6.62057 19.4631C6.58642 19.428 6.54303 19.4031 6.49539 19.3915L1.39031 18.1445C1.22752 18.1055 1.06798 18.2292 1.06798 18.3952L1.04194 23.6599C1.04194 23.878 1.29263 24.0017 1.46193 23.865L3.0182 22.6473C5.57726 25.9064 9.55258 27.9998 14.0163 27.9998C21.6511 27.9998 27.8599 21.8757 27.9999 14.2669C28.0008 14.2321 27.9947 14.1976 27.982 14.1652C27.9693 14.1329 27.9502 14.1034 27.926 14.0785C27.9017 14.0536 27.8727 14.0338 27.8407 14.0203C27.8086 14.0069 27.7742 13.9999 27.7395 13.9999Z" fill="white"/>
</svg>
