<svg width="26" height="33" viewBox="0 0 26 33" fill="none" xmlns="http://www.w3.org/2000/svg">
<path d="M15.8438 0H10.1562C9.25691 2.7171e-05 8.38914 0.331511 7.71882 0.931079C7.0485 1.53065 6.62268 2.35623 6.52275 3.25H3.65625C2.68655 3.25 1.75657 3.63521 1.07089 4.32089C0.385211 5.00657 0 5.93655 0 6.90625V28.8438C0 29.8134 0.385211 30.7434 1.07089 31.4291C1.75657 32.1148 2.68655 32.5 3.65625 32.5H22.3438C22.8239 32.5 23.2993 32.4054 23.7429 32.2217C24.1865 32.0379 24.5896 31.7686 24.9291 31.4291C25.2686 31.0896 25.5379 30.6865 25.7217 30.2429C25.9054 29.7993 26 29.3239 26 28.8438V6.90625C26 6.4261 25.9054 5.95066 25.7217 5.50706C25.5379 5.06347 25.2686 4.66041 24.9291 4.32089C24.5896 3.98138 24.1865 3.71206 23.7429 3.52832C23.2993 3.34457 22.8239 3.25 22.3438 3.25H19.4772C19.3773 2.35623 18.9515 1.53065 18.2812 0.931079C17.6109 0.331511 16.7431 2.7171e-05 15.8438 0ZM10.1562 2.4375H15.8438C16.167 2.4375 16.477 2.5659 16.7055 2.79446C16.9341 3.02302 17.0625 3.33302 17.0625 3.65625C17.0625 3.97948 16.9341 4.28948 16.7055 4.51804C16.477 4.7466 16.167 4.875 15.8438 4.875H10.1562C9.83302 4.875 9.52302 4.7466 9.29446 4.51804C9.0659 4.28948 8.9375 3.97948 8.9375 3.65625C8.9375 3.33302 9.0659 3.02302 9.29446 2.79446C9.52302 2.5659 9.83302 2.4375 10.1562 2.4375ZM13.8125 13.4062C13.8125 13.083 13.9409 12.773 14.1695 12.5445C14.398 12.3159 14.708 12.1875 15.0312 12.1875H20.7188C21.042 12.1875 21.352 12.3159 21.5805 12.5445C21.8091 12.773 21.9375 13.083 21.9375 13.4062C21.9375 13.7295 21.8091 14.0395 21.5805 14.268C21.352 14.4966 21.042 14.625 20.7188 14.625H15.0312C14.708 14.625 14.398 14.4966 14.1695 14.268C13.9409 14.0395 13.8125 13.7295 13.8125 13.4062ZM15.0312 21.125H20.7188C21.042 21.125 21.352 21.2534 21.5805 21.482C21.8091 21.7105 21.9375 22.0205 21.9375 22.3438C21.9375 22.667 21.8091 22.977 21.5805 23.2055C21.352 23.4341 21.042 23.5625 20.7188 23.5625H15.0312C14.708 23.5625 14.398 23.4341 14.1695 23.2055C13.9409 22.977 13.8125 22.667 13.8125 22.3438C13.8125 22.0205 13.9409 21.7105 14.1695 21.482C14.398 21.2534 14.708 21.125 15.0312 21.125ZM11.0175 12.6425L7.7675 15.8925C7.53898 16.1207 7.22922 16.2489 6.90625 16.2489C6.58328 16.2489 6.27352 16.1207 6.045 15.8925L4.42 14.2675C4.30026 14.1559 4.20422 14.0214 4.13761 13.8719C4.07099 13.7224 4.03518 13.561 4.03229 13.3973C4.0294 13.2337 4.0595 13.0712 4.1208 12.9194C4.1821 12.7676 4.27333 12.6298 4.38906 12.5141C4.50479 12.3983 4.64265 12.3071 4.7944 12.2458C4.94616 12.1845 5.10871 12.1544 5.27235 12.1573C5.43599 12.1602 5.59738 12.196 5.74687 12.2626C5.89637 12.3292 6.03092 12.4253 6.1425 12.545L6.90625 13.3087L9.295 10.92C9.40658 10.8003 9.54113 10.7042 9.69063 10.6376C9.84012 10.571 10.0015 10.5352 10.1652 10.5323C10.3288 10.5294 10.4913 10.5595 10.6431 10.6208C10.7949 10.6821 10.9327 10.7733 11.0484 10.8891C11.1642 11.0048 11.2554 11.1426 11.3167 11.2944C11.378 11.4462 11.4081 11.6087 11.4052 11.7723C11.4023 11.936 11.3665 12.0974 11.2999 12.2469C11.2333 12.3964 11.1372 12.5309 11.0175 12.6425ZM11.0175 19.8575C11.2457 20.086 11.3739 20.3958 11.3739 20.7188C11.3739 21.0417 11.2457 21.3515 11.0175 21.58L7.7675 24.83C7.53898 25.0582 7.22922 25.1864 6.90625 25.1864C6.58328 25.1864 6.27352 25.0582 6.045 24.83L4.42 23.205C4.30026 23.0934 4.20422 22.9589 4.13761 22.8094C4.07099 22.6599 4.03518 22.4985 4.03229 22.3348C4.0294 22.1712 4.0595 22.0087 4.1208 21.8569C4.1821 21.7051 4.27333 21.5673 4.38906 21.4516C4.50479 21.3358 4.64265 21.2446 4.7944 21.1833C4.94616 21.122 5.10871 21.0919 5.27235 21.0948C5.43599 21.0977 5.59738 21.1335 5.74687 21.2001C5.89637 21.2667 6.03092 21.3628 6.1425 21.4825L6.90625 22.2463L9.295 19.8575C9.52352 19.6293 9.83328 19.5011 10.1562 19.5011C10.4792 19.5011 10.789 19.6293 11.0175 19.8575Z" fill="white"/>
</svg>
